<svg width="175" height="66" viewBox="0 0 175 66" fill="none" xmlns="http://www.w3.org/2000/svg">
<path d="M2.29545 34V10.7273H11.0227C12.8106 10.7273 14.3106 11.0379 15.5227 11.6591C16.7424 12.2803 17.6629 13.1515 18.2841 14.2727C18.9129 15.3864 19.2273 16.6856 19.2273 18.1705C19.2273 19.6629 18.9091 20.9583 18.2727 22.0568C17.6439 23.1477 16.7159 23.9924 15.4886 24.5909C14.2614 25.1818 12.7538 25.4773 10.9659 25.4773H4.75V21.9773H10.3977C11.4432 21.9773 12.2992 21.8333 12.9659 21.5455C13.6326 21.25 14.125 20.822 14.4432 20.2614C14.7689 19.6932 14.9318 18.9962 14.9318 18.1705C14.9318 17.3447 14.7689 16.6402 14.4432 16.0568C14.1174 15.4659 13.6212 15.0189 12.9545 14.7159C12.2879 14.4053 11.428 14.25 10.375 14.25H6.51136V34H2.29545ZM14.3182 23.4545L20.0795 34H15.375L9.71591 23.4545H14.3182ZM34.0511 26.6591V16.5455H38.1648V34H34.1761V30.8977H33.9943C33.6004 31.875 32.9527 32.6742 32.0511 33.2955C31.1572 33.9167 30.0549 34.2273 28.7443 34.2273C27.6004 34.2273 26.589 33.9735 25.7102 33.4659C24.839 32.9508 24.1572 32.2045 23.6648 31.2273C23.1723 30.2424 22.9261 29.053 22.9261 27.6591V16.5455H27.0398V27.0227C27.0398 28.1288 27.3428 29.0076 27.9489 29.6591C28.5549 30.3106 29.3504 30.6364 30.3352 30.6364C30.9413 30.6364 31.5284 30.4886 32.0966 30.1932C32.6648 29.8977 33.1307 29.4583 33.4943 28.875C33.8655 28.2841 34.0511 27.5455 34.0511 26.6591ZM42.3949 40.5455V16.5455H46.4403V19.4318H46.679C46.8911 19.0076 47.1903 18.5568 47.5767 18.0795C47.9631 17.5947 48.4858 17.1818 49.1449 16.8409C49.804 16.4924 50.6449 16.3182 51.6676 16.3182C53.0161 16.3182 54.232 16.6629 55.3153 17.3523C56.4063 18.0341 57.2699 19.0455 57.9062 20.3864C58.5502 21.7197 58.8722 23.3561 58.8722 25.2955C58.8722 27.2121 58.5578 28.8409 57.929 30.1818C57.3002 31.5227 56.4441 32.5455 55.3608 33.25C54.2775 33.9545 53.0502 34.3068 51.679 34.3068C50.679 34.3068 49.8494 34.1402 49.1903 33.8068C48.5313 33.4735 48.0009 33.072 47.5994 32.6023C47.2055 32.125 46.8987 31.6742 46.679 31.25H46.5085V40.5455H42.3949ZM46.429 25.2727C46.429 26.4015 46.5881 27.3902 46.9062 28.2386C47.232 29.0871 47.6979 29.75 48.304 30.2273C48.9176 30.697 49.66 30.9318 50.5312 30.9318C51.4403 30.9318 52.2017 30.6894 52.8153 30.2045C53.429 29.7121 53.8911 29.0417 54.2017 28.1932C54.5199 27.3371 54.679 26.3636 54.679 25.2727C54.679 24.1894 54.5237 23.2273 54.2131 22.3864C53.9025 21.5455 53.4403 20.8864 52.8267 20.4091C52.2131 19.9318 51.4479 19.6932 50.5312 19.6932C49.6525 19.6932 48.9062 19.9242 48.2926 20.3864C47.679 20.8485 47.2131 21.4962 46.8949 22.3295C46.5843 23.1629 46.429 24.1439 46.429 25.2727ZM70.1222 34.3409C68.3722 34.3409 66.8608 33.9773 65.5881 33.25C64.3229 32.5152 63.3494 31.4773 62.6676 30.1364C61.9858 28.7879 61.6449 27.2008 61.6449 25.375C61.6449 23.5795 61.9858 22.0038 62.6676 20.6477C63.357 19.2841 64.3191 18.2235 65.554 17.4659C66.7888 16.7008 68.2396 16.3182 69.9062 16.3182C70.982 16.3182 71.9972 16.4924 72.9517 16.8409C73.9138 17.1818 74.7623 17.7121 75.4972 18.4318C76.2396 19.1515 76.8229 20.0682 77.2472 21.1818C77.6714 22.2879 77.8835 23.6061 77.8835 25.1364V26.3977H63.5767V23.625H73.9403C73.9328 22.8371 73.7623 22.1364 73.429 21.5227C73.0956 20.9015 72.6297 20.4129 72.0312 20.0568C71.4403 19.7008 70.7509 19.5227 69.9631 19.5227C69.1222 19.5227 68.3835 19.7273 67.7472 20.1364C67.1108 20.5379 66.6146 21.0682 66.2585 21.7273C65.91 22.3788 65.732 23.0947 65.7244 23.875V26.2955C65.7244 27.3106 65.91 28.1818 66.2812 28.9091C66.6525 29.6288 67.1714 30.1818 67.8381 30.5682C68.5047 30.947 69.285 31.1364 70.179 31.1364C70.7775 31.1364 71.3191 31.053 71.804 30.8864C72.2888 30.7121 72.7093 30.4583 73.0653 30.125C73.4214 29.7917 73.6903 29.3788 73.8722 28.8864L77.7131 29.3182C77.4706 30.3333 77.0085 31.2197 76.3267 31.9773C75.6525 32.7273 74.7888 33.3106 73.7358 33.7273C72.6828 34.1364 71.4782 34.3409 70.1222 34.3409ZM95.1591 21.1591L91.4091 21.5682C91.303 21.1894 91.1174 20.8333 90.8523 20.5C90.5947 20.1667 90.2462 19.8977 89.8068 19.6932C89.3674 19.4886 88.8295 19.3864 88.1932 19.3864C87.3371 19.3864 86.6174 19.572 86.0341 19.9432C85.4583 20.3144 85.1742 20.7955 85.1818 21.3864C85.1742 21.8939 85.3598 22.3068 85.7386 22.625C86.125 22.9432 86.7614 23.2045 87.6477 23.4091L90.625 24.0455C92.2765 24.4015 93.5038 24.9659 94.3068 25.7386C95.1174 26.5114 95.5265 27.5227 95.5341 28.7727C95.5265 29.8712 95.2045 30.8409 94.5682 31.6818C93.9394 32.5152 93.0644 33.1667 91.9432 33.6364C90.822 34.1061 89.5341 34.3409 88.0795 34.3409C85.9432 34.3409 84.2235 33.8939 82.9205 33C81.6174 32.0985 80.8409 30.8447 80.5909 29.2386L84.6023 28.8523C84.7841 29.6402 85.1705 30.2348 85.7614 30.6364C86.3523 31.0379 87.1212 31.2386 88.0682 31.2386C89.0455 31.2386 89.8295 31.0379 90.4205 30.6364C91.0189 30.2348 91.3182 29.7386 91.3182 29.1477C91.3182 28.6477 91.125 28.2348 90.7386 27.9091C90.3598 27.5833 89.7689 27.3333 88.9659 27.1591L85.9886 26.5341C84.3144 26.1856 83.0758 25.5985 82.2727 24.7727C81.4697 23.9394 81.072 22.8864 81.0795 21.6136C81.072 20.5379 81.3636 19.6061 81.9545 18.8182C82.553 18.0227 83.3826 17.4091 84.4432 16.9773C85.5114 16.5379 86.7424 16.3182 88.1364 16.3182C90.1818 16.3182 91.7917 16.7538 92.9659 17.625C94.1477 18.4962 94.8788 19.6742 95.1591 21.1591ZM103.04 23.7727V34H98.9261V10.7273H102.949V19.5114H103.153C103.563 18.5265 104.195 17.75 105.051 17.1818C105.915 16.6061 107.013 16.3182 108.347 16.3182C109.559 16.3182 110.616 16.572 111.517 17.0795C112.419 17.5871 113.116 18.3295 113.608 19.3068C114.108 20.2841 114.358 21.4773 114.358 22.8864V34H110.244V23.5227C110.244 22.3485 109.941 21.4356 109.335 20.7841C108.737 20.125 107.896 19.7955 106.812 19.7955C106.085 19.7955 105.434 19.9545 104.858 20.2727C104.29 20.5833 103.843 21.0341 103.517 21.625C103.199 22.2159 103.04 22.9318 103.04 23.7727ZM128.014 34V10.7273H132.23V21.4205H132.514L141.594 10.7273H146.741L137.741 21.1705L146.821 34H141.753L134.81 24.0227L132.23 27.0682V34H128.014ZM1.58523 59V45.9091H9.43466V47.3153H3.17045V51.7386H8.84659V53.1449H3.17045V59H1.58523ZM11.8397 59V49.1818H13.2971V50.6648H13.3993C13.5783 50.179 13.9022 49.7848 14.3709 49.4822C14.8397 49.1797 15.3681 49.0284 15.9561 49.0284C16.0669 49.0284 16.2054 49.0305 16.3716 49.0348C16.5378 49.0391 16.6635 49.0455 16.7488 49.054V50.5881C16.6976 50.5753 16.5804 50.5561 16.3972 50.5305C16.2182 50.5007 16.0286 50.4858 15.8283 50.4858C15.351 50.4858 14.9249 50.5859 14.5499 50.7862C14.1792 50.9822 13.8851 51.255 13.6678 51.6044C13.4547 51.9496 13.3482 52.3437 13.3482 52.7869V59H11.8397ZM22.2267 59.2045C21.3404 59.2045 20.5627 58.9936 19.8936 58.5717C19.2289 58.1499 18.709 57.5597 18.334 56.8011C17.9632 56.0426 17.7779 55.1562 17.7779 54.142C17.7779 53.1193 17.9632 52.2266 18.334 51.4638C18.709 50.701 19.2289 50.1087 19.8936 49.6868C20.5627 49.2649 21.3404 49.054 22.2267 49.054C23.1131 49.054 23.8887 49.2649 24.5534 49.6868C25.2225 50.1087 25.7424 50.701 26.1131 51.4638C26.4881 52.2266 26.6756 53.1193 26.6756 54.142C26.6756 55.1562 26.4881 56.0426 26.1131 56.8011C25.7424 57.5597 25.2225 58.1499 24.5534 58.5717C23.8887 58.9936 23.1131 59.2045 22.2267 59.2045ZM22.2267 57.8494C22.9 57.8494 23.454 57.6768 23.8887 57.3317C24.3233 56.9865 24.6451 56.5327 24.8539 55.9702C25.0627 55.4077 25.1671 54.7983 25.1671 54.142C25.1671 53.4858 25.0627 52.8743 24.8539 52.3075C24.6451 51.7408 24.3233 51.2827 23.8887 50.9332C23.454 50.5838 22.9 50.4091 22.2267 50.4091C21.5534 50.4091 20.9995 50.5838 20.5648 50.9332C20.1301 51.2827 19.8084 51.7408 19.5996 52.3075C19.3908 52.8743 19.2864 53.4858 19.2864 54.142C19.2864 54.7983 19.3908 55.4077 19.5996 55.9702C19.8084 56.5327 20.1301 56.9865 20.5648 57.3317C20.9995 57.6768 21.5534 57.8494 22.2267 57.8494ZM30.4869 53.0938V59H28.9783V49.1818H30.4357V50.7159H30.5636C30.7937 50.2173 31.1431 49.8168 31.6119 49.5142C32.0806 49.2074 32.6857 49.054 33.4272 49.054C34.092 49.054 34.6737 49.1903 35.1722 49.4631C35.6708 49.7315 36.0586 50.1406 36.3356 50.6903C36.6126 51.2358 36.7511 51.9261 36.7511 52.7614V59H35.2425V52.8636C35.2425 52.0923 35.0423 51.4915 34.6417 51.0611C34.2411 50.6264 33.6914 50.4091 32.9925 50.4091C32.511 50.4091 32.0806 50.5135 31.7013 50.7223C31.3263 50.9311 31.0302 51.2358 30.8129 51.6364C30.5955 52.0369 30.4869 52.5227 30.4869 53.0938ZM43.7775 49.1818V50.4602H38.6895V49.1818H43.7775ZM40.1724 46.8295H41.6809V56.1875C41.6809 56.6136 41.7427 56.9332 41.8663 57.1463C41.9941 57.3551 42.1561 57.4957 42.3521 57.5682C42.5524 57.6364 42.7633 57.6705 42.9849 57.6705C43.1511 57.6705 43.2875 57.6619 43.394 57.6449C43.5005 57.6236 43.5858 57.6065 43.6497 57.5938L43.9565 58.9489C43.8542 58.9872 43.7115 59.0256 43.5282 59.0639C43.345 59.1065 43.1127 59.1278 42.8315 59.1278C42.4054 59.1278 41.9877 59.0362 41.5787 58.853C41.1738 58.6697 40.8372 58.3906 40.5687 58.0156C40.3045 57.6406 40.1724 57.1676 40.1724 56.5966V46.8295ZM51.3201 52.6847V54.0909H45.5929V52.6847H51.3201ZM58.0909 59.2045C57.1449 59.2045 56.3288 58.9957 55.6428 58.5781C54.9609 58.1562 54.4347 57.5682 54.0639 56.8139C53.6974 56.0554 53.5142 55.1733 53.5142 54.1676C53.5142 53.1619 53.6974 52.2756 54.0639 51.5085C54.4347 50.7372 54.9503 50.1364 55.6108 49.706C56.2756 49.2713 57.0511 49.054 57.9375 49.054C58.4489 49.054 58.9538 49.1392 59.4524 49.3097C59.951 49.4801 60.4048 49.7571 60.8139 50.1406C61.223 50.5199 61.549 51.0227 61.7919 51.6491C62.0348 52.2756 62.1562 53.0469 62.1562 53.9631V54.6023H54.5881V53.2983H60.6222C60.6222 52.7443 60.5114 52.25 60.2898 51.8153C60.0724 51.3807 59.7614 51.0376 59.3565 50.7862C58.956 50.5348 58.483 50.4091 57.9375 50.4091C57.3366 50.4091 56.8168 50.5582 56.3778 50.8565C55.9432 51.1506 55.6087 51.5341 55.3743 52.0071C55.1399 52.4801 55.0227 52.9872 55.0227 53.5284V54.3977C55.0227 55.1392 55.1506 55.7678 55.4062 56.2834C55.6662 56.7947 56.0263 57.1847 56.4865 57.4531C56.9467 57.7173 57.4815 57.8494 58.0909 57.8494C58.4872 57.8494 58.8452 57.794 59.1648 57.6832C59.4886 57.5682 59.7678 57.3977 60.0021 57.1719C60.2365 56.9418 60.4176 56.6562 60.5455 56.3153L62.0028 56.7244C61.8494 57.2188 61.5916 57.6534 61.2294 58.0284C60.8672 58.3991 60.4197 58.6889 59.8871 58.8977C59.3544 59.1023 58.7557 59.2045 58.0909 59.2045ZM65.9595 53.0938V59H64.451V49.1818H65.9084V50.7159H66.0362C66.2663 50.2173 66.6158 49.8168 67.0845 49.5142C67.5533 49.2074 68.1584 49.054 68.8999 49.054C69.5646 49.054 70.1463 49.1903 70.6449 49.4631C71.1435 49.7315 71.5313 50.1406 71.8082 50.6903C72.0852 51.2358 72.2237 51.9261 72.2237 52.7614V59H70.7152V52.8636C70.7152 52.0923 70.5149 51.4915 70.1143 51.0611C69.7138 50.6264 69.1641 50.4091 68.4652 50.4091C67.9837 50.4091 67.5533 50.5135 67.174 50.7223C66.799 50.9311 66.5028 51.2358 66.2855 51.6364C66.0682 52.0369 65.9595 52.5227 65.9595 53.0938ZM78.6877 59.2045C77.8695 59.2045 77.1472 58.9979 76.5208 58.5845C75.8944 58.1669 75.4043 57.5788 75.0506 56.8203C74.6969 56.0575 74.5201 55.1562 74.5201 54.1165C74.5201 53.0852 74.6969 52.1903 75.0506 51.4318C75.4043 50.6733 75.8965 50.0874 76.5272 49.674C77.1578 49.2607 77.8865 49.054 78.7132 49.054C79.3525 49.054 79.8574 49.1605 80.2282 49.3736C80.6032 49.5824 80.8887 49.821 81.0847 50.0895C81.285 50.3537 81.4405 50.571 81.5513 50.7415H81.6792V45.9091H83.1877V59H81.7303V57.4915H81.5513C81.4405 57.6705 81.2828 57.8963 81.0783 58.169C80.8738 58.4375 80.5819 58.6783 80.2026 58.8913C79.8233 59.1001 79.3184 59.2045 78.6877 59.2045ZM78.8922 57.8494C79.4973 57.8494 80.0087 57.6918 80.4263 57.3764C80.8439 57.0568 81.1614 56.6158 81.3787 56.0533C81.5961 55.4865 81.7047 54.8324 81.7047 54.0909C81.7047 53.358 81.5982 52.7166 81.3851 52.1669C81.1721 51.6129 80.8567 51.1825 80.4391 50.8757C80.0215 50.5646 79.5059 50.4091 78.8922 50.4091C78.253 50.4091 77.7203 50.5732 77.2942 50.9013C76.8723 51.2251 76.5549 51.6662 76.3418 52.2244C76.133 52.7784 76.0286 53.4006 76.0286 54.0909C76.0286 54.7898 76.1351 55.4247 76.3482 55.9957C76.5655 56.5625 76.8851 57.0142 77.307 57.3509C77.7331 57.6832 78.2615 57.8494 78.8922 57.8494ZM94.9299 59.2045C94.1117 59.2045 93.3894 58.9979 92.763 58.5845C92.1365 58.1669 91.6465 57.5788 91.2928 56.8203C90.9391 56.0575 90.7623 55.1562 90.7623 54.1165C90.7623 53.0852 90.9391 52.1903 91.2928 51.4318C91.6465 50.6733 92.1387 50.0874 92.7694 49.674C93.4 49.2607 94.1287 49.054 94.9554 49.054C95.5946 49.054 96.0996 49.1605 96.4703 49.3736C96.8453 49.5824 97.1309 49.821 97.3269 50.0895C97.5272 50.3537 97.6827 50.571 97.7935 50.7415H97.9213V45.9091H99.4299V59H97.9725V57.4915H97.7935C97.6827 57.6705 97.525 57.8963 97.3205 58.169C97.1159 58.4375 96.824 58.6783 96.4448 58.8913C96.0655 59.1001 95.5605 59.2045 94.9299 59.2045ZM95.1344 57.8494C95.7395 57.8494 96.2509 57.6918 96.6685 57.3764C97.0861 57.0568 97.4036 56.6158 97.6209 56.0533C97.8382 55.4865 97.9469 54.8324 97.9469 54.0909C97.9469 53.358 97.8404 52.7166 97.6273 52.1669C97.4142 51.6129 97.0989 51.1825 96.6813 50.8757C96.2637 50.5646 95.748 50.4091 95.1344 50.4091C94.4952 50.4091 93.9625 50.5732 93.5364 50.9013C93.1145 51.2251 92.7971 51.6662 92.584 52.2244C92.3752 52.7784 92.2708 53.4006 92.2708 54.0909C92.2708 54.7898 92.3773 55.4247 92.5904 55.9957C92.8077 56.5625 93.1273 57.0142 93.5492 57.3509C93.9753 57.6832 94.5037 57.8494 95.1344 57.8494ZM106.519 59.2045C105.573 59.2045 104.757 58.9957 104.07 58.5781C103.389 58.1562 102.862 57.5682 102.492 56.8139C102.125 56.0554 101.942 55.1733 101.942 54.1676C101.942 53.1619 102.125 52.2756 102.492 51.5085C102.862 50.7372 103.378 50.1364 104.039 49.706C104.703 49.2713 105.479 49.054 106.365 49.054C106.877 49.054 107.382 49.1392 107.88 49.3097C108.379 49.4801 108.833 49.7571 109.242 50.1406C109.651 50.5199 109.977 51.0227 110.22 51.6491C110.463 52.2756 110.584 53.0469 110.584 53.9631V54.6023H103.016V53.2983H109.05C109.05 52.7443 108.939 52.25 108.718 51.8153C108.5 51.3807 108.189 51.0376 107.784 50.7862C107.384 50.5348 106.911 50.4091 106.365 50.4091C105.764 50.4091 105.244 50.5582 104.806 50.8565C104.371 51.1506 104.036 51.5341 103.802 52.0071C103.568 52.4801 103.45 52.9872 103.45 53.5284V54.3977C103.45 55.1392 103.578 55.7678 103.834 56.2834C104.094 56.7947 104.454 57.1847 104.914 57.4531C105.374 57.7173 105.909 57.8494 106.519 57.8494C106.915 57.8494 107.273 57.794 107.593 57.6832C107.916 57.5682 108.195 57.3977 108.43 57.1719C108.664 56.9418 108.845 56.6562 108.973 56.3153L110.431 56.7244C110.277 57.2188 110.019 57.6534 109.657 58.0284C109.295 58.3991 108.847 58.6889 108.315 58.8977C107.782 59.1023 107.183 59.2045 106.519 59.2045ZM120.608 49.1818L116.978 59H115.444L111.813 49.1818H113.449L116.159 57.0057H116.262L118.972 49.1818H120.608ZM126.364 59.2045C125.418 59.2045 124.602 58.9957 123.916 58.5781C123.234 58.1562 122.708 57.5682 122.337 56.8139C121.971 56.0554 121.788 55.1733 121.788 54.1676C121.788 53.1619 121.971 52.2756 122.337 51.5085C122.708 50.7372 123.224 50.1364 123.884 49.706C124.549 49.2713 125.325 49.054 126.211 49.054C126.722 49.054 127.227 49.1392 127.726 49.3097C128.224 49.4801 128.678 49.7571 129.087 50.1406C129.496 50.5199 129.822 51.0227 130.065 51.6491C130.308 52.2756 130.43 53.0469 130.43 53.9631V54.6023H122.862V53.2983H128.896C128.896 52.7443 128.785 52.25 128.563 51.8153C128.346 51.3807 128.035 51.0376 127.63 50.7862C127.229 50.5348 126.756 50.4091 126.211 50.4091C125.61 50.4091 125.09 50.5582 124.651 50.8565C124.217 51.1506 123.882 51.5341 123.648 52.0071C123.413 52.4801 123.296 52.9872 123.296 53.5284V54.3977C123.296 55.1392 123.424 55.7678 123.68 56.2834C123.94 56.7947 124.3 57.1847 124.76 57.4531C125.22 57.7173 125.755 57.8494 126.364 57.8494C126.761 57.8494 127.119 57.794 127.438 57.6832C127.762 57.5682 128.041 57.3977 128.276 57.1719C128.51 56.9418 128.691 56.6562 128.819 56.3153L130.276 56.7244C130.123 57.2188 129.865 57.6534 129.503 58.0284C129.141 58.3991 128.693 58.6889 128.161 58.8977C127.628 59.1023 127.029 59.2045 126.364 59.2045ZM134.233 45.9091V59H132.724V45.9091H134.233ZM140.985 59.2045C140.098 59.2045 139.32 58.9936 138.651 58.5717C137.987 58.1499 137.467 57.5597 137.092 56.8011C136.721 56.0426 136.536 55.1562 136.536 54.142C136.536 53.1193 136.721 52.2266 137.092 51.4638C137.467 50.701 137.987 50.1087 138.651 49.6868C139.32 49.2649 140.098 49.054 140.985 49.054C141.871 49.054 142.646 49.2649 143.311 49.6868C143.98 50.1087 144.5 50.701 144.871 51.4638C145.246 52.2266 145.433 53.1193 145.433 54.142C145.433 55.1562 145.246 56.0426 144.871 56.8011C144.5 57.5597 143.98 58.1499 143.311 58.5717C142.646 58.9936 141.871 59.2045 140.985 59.2045ZM140.985 57.8494C141.658 57.8494 142.212 57.6768 142.646 57.3317C143.081 56.9865 143.403 56.5327 143.612 55.9702C143.82 55.4077 143.925 54.7983 143.925 54.142C143.925 53.4858 143.82 52.8743 143.612 52.3075C143.403 51.7408 143.081 51.2827 142.646 50.9332C142.212 50.5838 141.658 50.4091 140.985 50.4091C140.311 50.4091 139.757 50.5838 139.323 50.9332C138.888 51.2827 138.566 51.7408 138.357 52.3075C138.149 52.8743 138.044 53.4858 138.044 54.142C138.044 54.7983 138.149 55.4077 138.357 55.9702C138.566 56.5327 138.888 56.9865 139.323 57.3317C139.757 57.6768 140.311 57.8494 140.985 57.8494ZM147.736 62.6818V49.1818H149.194V50.7415H149.373C149.483 50.571 149.637 50.3537 149.833 50.0895C150.033 49.821 150.319 49.5824 150.689 49.3736C151.064 49.1605 151.571 49.054 152.211 49.054C153.037 49.054 153.766 49.2607 154.397 49.674C155.027 50.0874 155.52 50.6733 155.873 51.4318C156.227 52.1903 156.404 53.0852 156.404 54.1165C156.404 55.1562 156.227 56.0575 155.873 56.8203C155.52 57.5788 155.029 58.1669 154.403 58.5845C153.777 58.9979 153.054 59.2045 152.236 59.2045C151.605 59.2045 151.1 59.1001 150.721 58.8913C150.342 58.6783 150.05 58.4375 149.846 58.169C149.641 57.8963 149.483 57.6705 149.373 57.4915H149.245V62.6818H147.736ZM149.219 54.0909C149.219 54.8324 149.328 55.4865 149.545 56.0533C149.762 56.6158 150.08 57.0568 150.498 57.3764C150.915 57.6918 151.426 57.8494 152.032 57.8494C152.662 57.8494 153.189 57.6832 153.61 57.3509C154.037 57.0142 154.356 56.5625 154.569 55.9957C154.787 55.4247 154.895 54.7898 154.895 54.0909C154.895 53.4006 154.789 52.7784 154.576 52.2244C154.367 51.6662 154.049 51.2251 153.623 50.9013C153.201 50.5732 152.671 50.4091 152.032 50.4091C151.418 50.4091 150.902 50.5646 150.485 50.8757C150.067 51.1825 149.752 51.6129 149.539 52.1669C149.326 52.7166 149.219 53.358 149.219 54.0909ZM162.821 59.2045C161.875 59.2045 161.059 58.9957 160.373 58.5781C159.691 58.1562 159.165 57.5682 158.794 56.8139C158.428 56.0554 158.245 55.1733 158.245 54.1676C158.245 53.1619 158.428 52.2756 158.794 51.5085C159.165 50.7372 159.681 50.1364 160.341 49.706C161.006 49.2713 161.782 49.054 162.668 49.054C163.179 49.054 163.684 49.1392 164.183 49.3097C164.681 49.4801 165.135 49.7571 165.544 50.1406C165.953 50.5199 166.279 51.0227 166.522 51.6491C166.765 52.2756 166.887 53.0469 166.887 53.9631V54.6023H159.319V53.2983H165.353C165.353 52.7443 165.242 52.25 165.02 51.8153C164.803 51.3807 164.492 51.0376 164.087 50.7862C163.686 50.5348 163.213 50.4091 162.668 50.4091C162.067 50.4091 161.547 50.5582 161.108 50.8565C160.674 51.1506 160.339 51.5341 160.105 52.0071C159.87 52.4801 159.753 52.9872 159.753 53.5284V54.3977C159.753 55.1392 159.881 55.7678 160.137 56.2834C160.397 56.7947 160.757 57.1847 161.217 57.4531C161.677 57.7173 162.212 57.8494 162.821 57.8494C163.218 57.8494 163.576 57.794 163.895 57.6832C164.219 57.5682 164.498 57.3977 164.733 57.1719C164.967 56.9418 165.148 56.6562 165.276 56.3153L166.733 56.7244C166.58 57.2188 166.322 57.6534 165.96 58.0284C165.598 58.3991 165.15 58.6889 164.618 58.8977C164.085 59.1023 163.486 59.2045 162.821 59.2045ZM169.181 59V49.1818H170.639V50.6648H170.741C170.92 50.179 171.244 49.7848 171.713 49.4822C172.181 49.1797 172.71 49.0284 173.298 49.0284C173.409 49.0284 173.547 49.0305 173.713 49.0348C173.88 49.0391 174.005 49.0455 174.091 49.054V50.5881C174.039 50.5753 173.922 50.5561 173.739 50.5305C173.56 50.5007 173.37 50.4858 173.17 50.4858C172.693 50.4858 172.267 50.5859 171.892 50.7862C171.521 50.9822 171.227 51.255 171.01 51.6044C170.797 51.9496 170.69 52.3437 170.69 52.7869V59H169.181Z" fill="white"/>
<path d="M121.085 34.25C120.396 34.25 119.805 34.0076 119.312 33.5227C118.82 33.0379 118.578 32.447 118.585 31.75C118.578 31.0682 118.82 30.4848 119.312 30C119.805 29.5152 120.396 29.2727 121.085 29.2727C121.752 29.2727 122.331 29.5152 122.824 30C123.324 30.4848 123.578 31.0682 123.585 31.75C123.578 32.2121 123.456 32.6326 123.222 33.0114C122.994 33.3902 122.691 33.6932 122.312 33.9205C121.941 34.1402 121.532 34.25 121.085 34.25Z" fill="#FFD800"/>
</svg>
